<?xml version="1.0" encoding="iso-8859-1"?>
<!-- Uploaded to: SVG Repo, www.svgrepo.com, Generator: SVG Repo Mixer Tools -->
<!DOCTYPE svg PUBLIC "-//W3C//DTD SVG 1.1//EN" "http://www.w3.org/Graphics/SVG/1.1/DTD/svg11.dtd">
<svg fill="#000000" version="1.1" id="Capa_1" xmlns="http://www.w3.org/2000/svg" xmlns:xlink="http://www.w3.org/1999/xlink" 
	 width="800px" height="800px" viewBox="0 0 605.656 605.656"
	 xml:space="preserve">
<g>
	<g>
		<path d="M547.016,96.875H58.64c-32.059,0-58.14,26.082-58.14,58.14v295.627c0,32.059,26.082,58.141,58.14,58.141h488.375
			c32.059,0,58.141-26.082,58.141-58.141V155.014C605.156,122.955,579.074,96.875,547.016,96.875z M562.316,450.641
			c0,8.449-6.851,15.3-15.301,15.3h-47.929l-23.473-48.446c-6.095-12.581-19.066-20.71-33.046-20.71h-279.48
			c-13.979,0-26.951,8.13-33.045,20.71l-23.474,48.446H58.64c-8.45,0-15.3-6.851-15.3-15.3V155.014c0-8.45,6.85-15.3,15.3-15.3
			h488.375c8.45,0,15.301,6.85,15.301,15.3V450.641z M154.403,465.467l12.521-25.843h271.809l12.521,25.843H154.403z"/>
		<path d="M547.016,509.282H58.64C26.306,509.282,0,482.976,0,450.641V155.014c0-32.334,26.306-58.64,58.64-58.64h488.375
			c32.335,0,58.641,26.306,58.641,58.64v295.627C605.656,482.976,579.351,509.282,547.016,509.282z M58.64,97.375
			C26.857,97.375,1,123.231,1,155.014v295.627c0,31.783,25.857,57.641,57.64,57.641h488.375c31.783,0,57.641-25.857,57.641-57.641
			V155.014c0-31.783-25.857-57.64-57.641-57.64H58.64z M547.016,466.441h-48.242l-23.609-48.729
			c-6.012-12.409-18.806-20.428-32.596-20.428h-279.48c-13.789,0-26.583,8.019-32.595,20.428l-23.61,48.729H58.64
			c-8.712,0-15.8-7.088-15.8-15.8V155.014c0-8.712,7.088-15.8,15.8-15.8h488.375c8.713,0,15.801,7.088,15.801,15.8v295.627
			C562.816,459.353,555.729,466.441,547.016,466.441z M499.4,465.441h47.615c8.161,0,14.801-6.639,14.801-14.8V155.014
			c0-8.161-6.64-14.8-14.801-14.8H58.64c-8.161,0-14.8,6.639-14.8,14.8v295.627c0,8.161,6.639,14.8,14.8,14.8h47.616l23.337-48.164
			c6.178-12.752,19.326-20.992,33.496-20.992h279.48c14.17,0,27.318,8.24,33.496,20.992L499.4,465.441z M452.051,465.967H153.605
			l13.005-26.843h272.436L452.051,465.967z M155.201,464.967h295.254l-12.036-24.843H167.237L155.201,464.967z"/>
	</g>
	<g>
		<path d="M471.645,171.778H134.012c-32.059,0-58.14,26.082-58.14,58.14v68.69c0,32.059,26.082,58.14,58.14,58.14h337.631
			c32.059,0,58.141-26.081,58.141-58.14v-68.69C529.784,197.859,503.702,171.778,471.645,171.778z M486.944,298.608
			c0,8.45-6.851,15.3-15.3,15.3H134.012c-8.45,0-15.3-6.85-15.3-15.3v-68.69c0-8.45,6.85-15.3,15.3-15.3h337.631
			c8.45,0,15.301,6.85,15.301,15.3V298.608L486.944,298.608z"/>
		<path d="M471.644,357.248H134.012c-32.334,0-58.64-26.306-58.64-58.64v-68.69c0-32.334,26.306-58.64,58.64-58.64h337.632
			c32.334,0,58.64,26.306,58.64,58.64v68.69C530.284,330.942,503.979,357.248,471.644,357.248z M134.012,172.278
			c-31.783,0-57.64,25.857-57.64,57.64v68.69c0,31.782,25.857,57.64,57.64,57.64h337.631c31.783,0,57.641-25.857,57.641-57.64
			v-68.69c0-31.783-25.857-57.64-57.64-57.64H134.012z M471.645,314.408H134.012c-8.712,0-15.8-7.088-15.8-15.8v-68.69
			c0-8.712,7.088-15.8,15.8-15.8h337.631c8.713,0,15.801,7.088,15.801,15.8v68.69C487.444,307.32,480.356,314.408,471.645,314.408z
			 M134.012,215.118c-8.161,0-14.8,6.639-14.8,14.8v68.69c0,8.161,6.639,14.8,14.8,14.8h337.632c8.161,0,14.8-6.639,14.8-14.8
			v-68.69c0-8.161-6.64-14.8-14.801-14.8H134.012z"/>
	</g>
	<g>
		<circle cx="185.955" cy="264.263" r="21.224"/>
		<path d="M185.955,285.987c-11.979,0-21.724-9.746-21.724-21.724s9.746-21.724,21.724-21.724s21.724,9.746,21.724,21.724
			S197.934,285.987,185.955,285.987z M185.955,243.539c-11.427,0-20.724,9.297-20.724,20.724s9.297,20.724,20.724,20.724
			s20.724-9.297,20.724-20.724S197.382,243.539,185.955,243.539z"/>
	</g>
	<g>
		<circle cx="410.54" cy="264.263" r="21.224"/>
		<path d="M410.54,285.987c-11.979,0-21.724-9.746-21.724-21.724s9.745-21.724,21.724-21.724s21.725,9.746,21.725,21.724
			S422.519,285.987,410.54,285.987z M410.54,243.539c-11.427,0-20.724,9.297-20.724,20.724s9.297,20.724,20.724,20.724
			c11.428,0,20.725-9.297,20.725-20.724S421.968,243.539,410.54,243.539z"/>
	</g>
</g>
</svg>